<svg id="Capa_1" fill="#aa8453" enable-background="new 0 0 512 512" height="512" viewBox="0 0 512 512" width="512" xmlns="http://www.w3.org/2000/svg"><g><path d="m419.924 116.345c-34.061-34.059-76.859-56.207-123.341-64.362v-11.432c0-10.841-4.222-21.025-11.874-28.663-7.651-7.666-17.835-11.888-28.677-11.888-22.36 0-40.552 18.191-40.552 40.551v11.226c-44.146 8.194-87.015 31.126-121.764 65.93-45.669 45.741-70.979 105.02-69.457 162.657.017 28.952 5.295 57.12 15.682 83.815-7.278 13.796-11.407 29.499-11.407 46.151 0 54.723 44.521 99.244 99.244 99.244 17.159 0 33.315-4.379 47.409-12.076 25.836 9.621 53.007 14.502 80.845 14.502 23.546 0 46.767-3.517 69.019-10.453 23.822-7.419 46.186-18.604 66.469-33.245 4.487-3.239 5.499-9.501 2.26-13.988-3.239-4.488-9.503-5.497-13.988-2.26-18.524 13.371-38.947 23.586-60.702 30.361-20.321 6.334-41.536 9.545-63.058 9.545-20.802 0-41.189-2.989-60.83-8.878 5.445-5.05 10.325-10.7 14.531-16.846 15.089 3.759 30.627 5.665 46.299 5.665 105.723 0 191.735-86.012 191.735-191.734 0-105.723-86.012-191.735-191.735-191.735-105.722 0-191.734 86.012-191.734 191.735 0 16.659 2.141 33.122 6.364 49.048-6.069 4.286-11.636 9.235-16.599 14.74-6.476-20.512-9.765-41.872-9.765-63.728 0-.091-.001-.182-.004-.272-1.418-52.209 21.764-106.186 63.603-148.09 41.545-41.611 95.457-64.703 147.879-63.365.085.002.171.003.256.003 56.56 0 109.732 22.023 149.722 62.011 39.988 39.988 62.012 93.157 62.012 149.712 0 38.431-10.388 76.048-30.042 108.785-2.848 4.745-1.311 10.9 3.432 13.748 1.614.969 3.392 1.431 5.148 1.431 3.403 0 6.721-1.734 8.6-4.863 21.524-35.851 32.901-77.036 32.901-119.1 0-61.908-24.107-120.109-67.881-163.882zm-371.349 293.985c0-43.674 35.531-79.204 79.204-79.204s79.205 35.531 79.205 79.204-35.531 79.204-79.205 79.204-79.204-35.531-79.204-79.204zm208.023-140.154c5.511 0 9.994 4.483 9.994 9.995s-4.483 9.995-9.994 9.995c-5.512 0-9.995-4.483-9.995-9.995s4.483-9.995 9.995-9.995zm-171.894 21.163h13.674c5.533 0 10.02-4.486 10.02-10.02s-4.486-10.02-10.02-10.02h-13.813c2.051-40.115 17.942-76.63 42.97-104.873l10.1 10.099c1.957 1.956 4.521 2.934 7.085 2.934s5.128-.978 7.085-2.935c3.913-3.913 3.913-10.257 0-14.17l-10.135-10.134c28.19-25.224 64.73-41.295 104.909-43.486v143.126c-11.648 4.135-20.015 15.261-20.015 28.309 0 16.561 13.474 30.034 30.034 30.034s30.033-13.473 30.033-30.034c0-13.048-8.366-24.174-20.014-28.309v-143.052c40.015 2.446 76.37 18.652 104.376 43.946l-9.603 9.603c-3.913 3.913-3.913 10.257 0 14.17 1.957 1.957 4.521 2.935 7.085 2.935s5.128-.978 7.085-2.934l9.501-9.501c24.722 28.16 40.403 64.443 42.439 104.274h-12.684c-5.533 0-10.02 4.486-10.02 10.02s4.486 10.02 10.02 10.02h12.538c-2.55 39.501-18.513 75.403-43.377 103.191l-8.417-8.417c-3.914-3.913-10.256-3.913-14.17 0-3.913 3.913-3.913 10.257 0 14.17l8.382 8.382c-27.839 24.67-63.717 40.451-103.155 42.862v-11.987c0-5.534-4.486-10.02-10.02-10.02s-10.02 4.486-10.02 10.02v12.039c-9.097-.498-18.117-1.69-26.975-3.613 4.777-11.613 7.419-24.32 7.419-37.635 0-54.723-44.521-99.244-99.244-99.244-13.835 0-27.015 2.849-38.991 7.986-2.114-9.092-3.477-18.362-4.082-27.736zm150.816-242.259v-8.529c0-11.311 9.202-20.512 20.513-20.512 5.481 0 10.628 2.133 14.507 6.019 3.872 3.865 6.005 9.012 6.005 14.494v8.82c-6.742-.587-13.54-.903-20.387-.906-6.869-.173-13.756.044-20.638.614z"/><path d="m189.456 393.068c0-15.754-12.817-28.57-28.57-28.57s-28.57 12.817-28.57 28.57v29.668c0 15.754 12.817 28.57 28.57 28.57s28.57-12.817 28.57-28.57zm-20.039 29.668c0 4.704-3.827 8.531-8.531 8.531s-8.531-3.827-8.531-8.531v-29.668c0-4.704 3.827-8.531 8.531-8.531s8.531 3.827 8.531 8.531z"/><path d="m97.326 394.711c4.586-6.26 8.851-9.612 9.04-9.757 4.404-3.311 5.31-9.562 2.018-13.989-3.301-4.44-9.581-5.362-14.019-2.06-.979.729-23.865 18.107-27.892 50.632-.242 1.519-.371 3.074-.371 4.66 0 16.287 13.25 29.537 29.537 29.537s29.537-13.25 29.537-29.537c0-15.72-12.345-28.608-27.85-29.486zm-1.687 38.984c-5.237 0-9.498-4.261-9.498-9.498s4.261-9.498 9.498-9.498 9.498 4.261 9.498 9.498-4.261 9.498-9.498 9.498z"/><circle cx="419.159" cy="430.302" r="10.02"/></g></svg>