<svg id="Capa_1" fill="#aa8453" enable-background="new 0 0 512 512" height="512" viewBox="0 0 512 512" width="512" xmlns="http://www.w3.org/2000/svg"><g><path d="m251.788 142.112c3.188 1.918 6.76 2.876 10.335 2.876 3.573 0 7.147-.959 10.333-2.876 28.742-17.292 37.959-26.419 44.342-33.617 8.539-9.628 12.691-19.134 12.691-29.062 0-21.353-17.372-38.725-38.725-38.725-11.097 0-21.427 4.735-28.642 12.663-7.214-7.929-17.544-12.663-28.642-12.663-21.353 0-38.725 17.372-38.725 38.725 0 9.927 4.151 19.433 12.69 29.062 6.384 7.198 15.602 16.326 44.343 33.617zm-18.308-86.404c9.449 0 17.992 5.606 21.763 14.282 1.19 2.739 3.892 4.51 6.878 4.51s5.688-1.771 6.878-4.51c3.772-8.676 12.315-14.282 21.764-14.282 13.082 0 23.725 10.643 23.725 23.725 0 6.096-2.915 12.347-8.913 19.109-5.647 6.367-13.926 14.516-40.853 30.716-1.605.965-3.598.965-5.202 0-26.926-16.2-35.206-24.349-40.853-30.716-5.997-6.762-8.913-13.013-8.913-19.109.001-13.081 10.644-23.725 23.726-23.725z"/><path d="m399.652 141.241h-55.922c-14.222 0-25.792 11.571-25.792 25.792 0 14.222 11.57 25.792 25.792 25.792h24.524c5.004 0 9.075 4.071 9.075 9.075v.828c0 4.142 3.358 7.5 7.5 7.5s7.5-3.358 7.5-7.5v-.828c0-13.275-10.8-24.075-24.075-24.075h-24.524c-5.951 0-10.792-4.841-10.792-10.792s4.841-10.792 10.792-10.792h55.922c13.488 0 24.462-10.974 24.462-24.462s-10.974-24.462-24.462-24.462h-21.238c-4.142 0-7.5 3.358-7.5 7.5s3.358 7.5 7.5 7.5h21.238c5.217 0 9.462 4.245 9.462 9.462s-4.245 9.462-9.462 9.462z"/><path d="m509.771 375.2c-2.584-4.017-6.978-6.416-11.755-6.416h-59.452c12.558-13.813 19.693-31.878 19.693-51.127v-9.226c22.182-1.363 39.814-19.833 39.814-42.352v-19.739c0-6.454-5.251-11.705-11.705-11.705h-28.156c-.488-6.511-5.929-11.663-12.563-11.663h-135.203c-6.954 0-12.611 5.657-12.611 12.611v39.967c-5.278-1.44-10.672-2.387-16.13-2.848-1.59-11.621-9.428-21.766-20.988-25.994-24.243-8.867-50.753-9.532-75.347-2.035l9.205-87.004c.421-3.981-.873-7.97-3.55-10.946s-6.509-4.682-10.512-4.682h-70.447c-4.142 0-7.5 3.358-7.5 7.5s3.358 7.5 7.5 7.5h69.492l-4.804 45.413h-117.838l-4.805-45.413h27.954c4.142 0 7.5-3.358 7.5-7.5s-3.358-7.5-7.5-7.5h-28.908c-4.003 0-7.834 1.707-10.512 4.682-2.677 2.976-3.971 6.966-3.55 10.946l22.334 211.113h-45.442c-4.777 0-9.171 2.398-11.755 6.416-2.584 4.017-2.944 9.011-.963 13.357.26.569.589 1.104.982 1.592l34.197 42.493c2.448 4.397 7.127 7.182 12.213 7.182h40.401v12.525c0 10.445 8.498 18.943 18.943 18.943h34.076c10.445 0 18.943-8.498 18.943-18.943v-12.525h17.133c4.142 0 7.5-3.358 7.5-7.5s-3.358-7.5-7.5-7.5h-128.872c-.198-.348-.424-.68-.676-.993l-32.227-40.044h479.241l-32.228 40.046c-.252.313-.478.645-.676.993h-254.562c-4.142 0-7.5 3.358-7.5 7.5s3.358 7.5 7.5 7.5h142.824v12.525c0 10.445 8.498 18.943 18.943 18.943h34.076c10.445 0 18.943-8.498 18.943-18.943v-12.525h40.401c5.086 0 9.765-2.785 12.213-7.181l34.197-42.493c.393-.488.722-1.023.982-1.592 1.981-4.347 1.621-9.34-.963-13.358zm-363.749 64.624v12.525c0 2.174-1.769 3.943-3.943 3.943h-34.076c-2.174 0-3.943-1.769-3.943-3.943v-12.525zm337.049-173.743c0 14.244-10.911 25.989-24.814 27.316v-43.76h24.814zm-39.814-28.108v4.163 58.885 16.636c0 20.735-10.309 39.765-27.622 51.127h-66.015c.894-16.773-4.815-33.374-15.968-46.055l-12.219-13.891.329-1.78c1.757-9.51-1.859-18.863-8.929-24.742v-44.343zm-132.898 130.812 7.607-41.176 4.423 5.028c8.738 9.934 13.119 23.003 12.203 36.148zm-44.74 0 14.986-81.121c6.602.572 13.09 1.998 19.335 4.282 5.081 1.858 8.055 7.068 7.072 12.388l-11.906 64.451zm-122.01 0-11.906-64.451c-.982-5.32 1.992-10.53 7.073-12.388 6.624-2.423 13.523-3.893 20.544-4.388l15.006 81.227zm-39.486 0c-.917-13.145 3.464-26.212 12.203-36.148l4.423-5.028 7.607 41.176zm151.44-107.988c8.006 2.928 12.693 11.139 11.145 19.522l-16.233 87.87h-61.006l-16.233-87.87c-1.548-8.383 3.138-16.594 11.145-19.522 22.952-8.395 48.231-8.395 71.182 0zm-197.062-43.341h114.663l-3.647 34.471c-.014.135-.015.269-.022.403-6.115 5.124-10.127 12.348-11.237 20.266-8.419.594-16.691 2.357-24.635 5.262-11.975 4.381-18.986 16.661-16.669 29.2l.335 1.815c-.13.128-.261.255-.384.394l-11.841 13.462c-11.155 12.682-16.863 29.281-15.968 46.055h-14.585zm349.44 234.893c0 2.174-1.769 3.943-3.943 3.943h-34.076c-2.174 0-3.943-1.769-3.943-3.943v-12.525h41.963v12.525z"/></g></svg>