<svg id="Travel" fill="#aa8453" enable-background="new 0 0 64 64" height="512" viewBox="0 0 64 64" width="512" xmlns="http://www.w3.org/2000/svg"><path d="m13.2 45.147c-.042 2.993.342 4.491 1.785 6.964.397.681 1.063 1.821 2.321 2.078.168.034.338.051.509.051 1.328 0 2.739-1.035 4.202-3.085.56-.785.832-1.354 2.022-4.747l.643-1.852c.875-2.529 1.006-2.875 1.536-3.467.547-.608.953-.822 1.467-1.091.489-.256 1.044-.548 1.73-1.191 2.338-2.191 2.662-4.675 1.625-5.812-.558-.611-2.177-.862-3.42-.75l-.87.081c-.707.067-1.436.136-1.711.111-.164-.195-.165-.603-.153-1.219.018-.91.042-2.157-.9-3.188-.793-.87-1.923-1.215-2.526-1.343-.845-.179-1.491-.091-2.056-.009-.085-.024-.32-.232-.492-.385-.648-.574-1.626-1.442-3.654-1.896-3.015-.676-4.649.225-5.964.947-.812.446-1.433.859-2.205 1.655-.912.942-2.439 2.519-2.738 4.99l-.033.22c-.147.937-.538 3.425 1.42 5.011 1.586 1.284 2.912 1.577 4.083 1.834.869.192 1.619.356 2.386.922 1.585 1.167 1.287 3.065 1.091 4.321-.053.35-.094.642-.098.85zm-.102-6.378c-1.023-.753-2.004-.969-2.952-1.178-1.107-.244-2.151-.474-3.462-1.535-1.286-1.041-1.013-2.778-.882-3.612l.04-.273c.238-1.971 1.445-3.217 2.327-4.127.642-.663 1.145-.998 1.849-1.384.898-.493 1.819-.999 3.243-.999.491 0 1.041.06 1.671.201 1.65.369 2.422 1.055 2.986 1.555.466.413.948.838 1.785.731.402-.056.856-.118 1.447.007.726.154 1.356.477 1.728.886 0 0 0 0 .001.001.538.589.523 1.346.508 2.148-.017.875-.036 1.868.811 2.503.453.339 1.11.278 2.695.126l.861-.08c1.127-.103 2.039.173 2.18.267.388.425.2 2.073-1.544 3.707-.538.504-.958.724-1.401.957-.57.299-1.159.608-1.886 1.418-.753.84-.961 1.443-1.837 3.978l-.642 1.846c-1.152 3.285-1.39 3.76-1.827 4.371-1.736 2.432-2.812 2.511-3.191 2.435-.601-.122-1.019-.84-1.325-1.365-1.201-2.058-1.62-3.303-1.58-6.186.002-.157.04-.375.081-.637.222-1.416.635-4.054-1.684-5.761zm14.04 12.531c.113.025.237.025.35.025.65 0 1.35-.3 2.075-.925.775-.675 1.012-1.412 1.312-2.35.163-.5.2-.725.225-.937.012-.125.037-.25.125-.5.163-.475.338-.75.5-1.012.212-.35.437-.712.55-1.325.288-1.688-.412-2.187-.862-2.337-.775-.25-1.575.287-2.35.812-.75.513-1.613 1.087-2 2.062-.187.462-.2.837-.2 1.113-.013.287-.013.412-.188.675-.062.1-.088.125-.15.175-.112.112-.237.237-.4.475-.187.262-.675.975-.675 1.837 0 .237.025.475.112.725.388 1.112 1.151 1.412 1.576 1.487zm.212-3.2c.087-.125.125-.163.2-.225.088-.075.212-.2.375-.438.425-.625.425-1.125.438-1.487 0-.212 0-.375.087-.575.225-.55.8-.937 1.463-1.388.275-.187.7-.475.925-.575.013.125 0 .325-.038.612-.062.325-.163.488-.35.787-.188.3-.425.675-.638 1.3-.137.4-.163.588-.2.8-.025.15-.038.312-.163.675-.288.888-.425 1.3-.875 1.675-.663.575-1.038.587-1.175.563-.175-.038-.312-.2-.413-.5-.161-.462.227-1.012.364-1.224zm-26.583 3.502c-.005 0-.01 0-.015 0-.408 0-.742-.326-.75-.735l-.002-.2c0-.829.118-1.666.352-2.489.113-.398.53-.629.926-.516.399.112.63.527.517.927-.196.688-.295 1.387-.295 2.078l.002.171c.008.414-.321.756-.735.764zm2.938 4.337c.286.3.276.774-.023 1.061-.146.139-.332.208-.519.208-.197 0-.394-.077-.542-.231-.638-.668-1.172-1.401-1.585-2.18-.195-.366-.056-.82.311-1.014.365-.193.819-.055 1.014.311.348.658.801 1.278 1.344 1.845zm11.706 4.407c.01.414-.317.758-.731.768-.203.005-.404.007-.602.007-.669 0-1.335-.028-1.979-.084-.413-.035-.718-.399-.682-.812s.381-.729.812-.682c.768.066 1.572.093 2.412.072.389-.024.76.316.77.731zm-6.205-.535c-.099.322-.396.531-.717.531-.073 0-.146-.011-.219-.033-.863-.264-1.683-.593-2.439-.98-.369-.189-.515-.641-.326-1.01.188-.367.637-.515 1.01-.326.677.347 1.415.643 2.194.88.395.123.618.542.497.938zm20.299-3.496c-.186-.37-.037-.822.333-1.007.718-.36 1.444-.745 2.181-1.156.364-.2.818-.072 1.02.291.201.361.071.819-.291 1.02-.757.421-1.503.815-2.238 1.185-.109.054-.223.081-.337.081-.272 0-.537-.151-.668-.414zm8.808-5.222c.233.343.144.809-.198 1.042-.712.485-1.414.946-2.109 1.388-.125.079-.264.116-.4.116-.249 0-.492-.122-.635-.348-.222-.349-.118-.813.232-1.035.681-.432 1.371-.886 2.068-1.361.343-.234.809-.143 1.042.198zm25.28-13.897c-.411-.729-1.082-1.254-1.888-1.478-.689-.191-1.402-.131-2.051.145.297-2.252.347-4.546.12-6.846-1.364-13.77-12.347-24.753-26.115-26.117-8.824-.872-17.441 2.195-23.663 8.418s-9.29 14.848-8.418 23.662c.279 2.821.982 5.515 2.01 8.043-.524.509-1.012 1.037-1.425 1.586-.25.331-.183.802.148 1.051.135.101.294.15.45.15.228 0 .452-.103.599-.298.259-.344.552-.679.863-1.008 3.093 6.541 8.554 11.736 15.265 14.513-.407.084-.818.184-1.219.25-.408.067-.685.453-.618.862.06.367.378.627.739.627.04 0 .081-.002.123-.01.825-.135 1.667-.308 2.505-.513.248-.061.424-.243.509-.465 1.976.648 4.032 1.116 6.167 1.328 1.011.1 2.016.15 3.014.15 7.212 0 14.029-2.588 19.455-7.44.308-.276.334-.751.059-1.06-.275-.306-.748-.334-1.06-.059-5.858 5.24-13.431 7.689-21.321 6.916-1.042-.103-2.06-.285-3.066-.501.745-.263 1.503-.55 2.277-.87.383-.159.565-.597.406-.98-.158-.383-.594-.565-.98-.406-.78.323-1.545.615-2.295.878-.391.137-.597.565-.46.956.026.074.064.141.108.201-11.127-2.809-19.602-12.359-20.76-24.049-.829-8.365 2.082-16.549 7.985-22.453 5.905-5.904 14.104-8.812 22.454-7.986 10.588 1.048 19.437 8.095 23.098 17.684-.779.818-1.432 1.876-2.011 2.838-.846 1.409-1.063 2.457-1.254 3.383-.133.64-.248 1.193-.569 1.777-.936 1.696-3.152 2.636-3.54 2.528-.004-.004-.394-.452-.607-2.864-.112-1.24-.347-3.818-1.818-6.08-.302-.469-.464-.977-.62-1.468-.248-.781-.505-1.588-1.289-2.155-.817-.588-1.584-.729-2.397-.878-.831-.152-1.772-.324-3.13-1.019-.592-.3-1.123-.577-1.606-.828-2.676-1.393-4.021-2.09-5.67-1.541-1.079.372-2.268 1.311-2.328 2.507-.057 1.708 2.284 2.887 4.155 3.831.385.2 2.333.88 3.363.67.001 0 .125-.024.127-.025.404-.082.958-.193 1.702-.098.199.024.425.051.459.059.167.186.403 1.323-.033 2.91-.32 1.163-1.196 3.22-3.469 3.925-2.491.768-3.038.384-3.141.254-.186-.236-.414-.46-.662-.698-.278-.268-.566-.545-.811-.889-1.176-1.624-2.408-2.1-3.145-2.385-.169-.065-.4-.154-.46-.204-.365-.3-.464-.651-.62-1.298-.07-.288-.143-.588-.255-.906-.874-2.404-3.408-4.033-5.39-4.529-1.234-.316-2.411.15-3.658.642-.529.208-1.075.422-1.636.58-1.29.363-2.935.634-3.47-.176-.369-.54-.176-2.087.328-2.628.566-.607 1.68-1.163 2.837-1.417.962-.211 2.159-.474 2.775-1.555.549-.964.501-2.334-.151-4.31-.062-.187-.104-.364-.129-.535-.059-.411-.445-.695-.85-.635-.41.059-.694.439-.635.85.036.251.098.513.189.789.489 1.482.583 2.554.273 3.099-.266.467-.883.633-1.793.833-1.479.324-2.829 1.019-3.613 1.858-.993 1.066-1.235 3.377-.462 4.509.823 1.249 2.495 1.498 5.107.763.634-.179 1.215-.408 1.778-.629 1.061-.417 1.981-.778 2.743-.583 1.663.416 3.691 1.782 4.344 3.579.091.26.151.512.209.754.167.691.356 1.474 1.125 2.104.246.203.536.315.873.445.656.253 1.555.6 2.466 1.859.323.454.677.795.99 1.096.193.186.376.357.525.548.978 1.218 3.055.771 4.761.248 3.624-1.124 4.49-4.766 4.668-5.855.22-1.338.149-2.99-.695-3.6-.334-.257-.695-.3-1.199-.361-.97-.125-1.724.026-2.295.142-.515.105-2.054-.361-2.388-.533-1.007-.508-3.365-1.696-3.34-2.433.018-.372.646-.921 1.31-1.149.991-.33 1.87.085 4.497 1.451.487.253 1.023.532 1.617.834 1.551.794 2.655.996 3.541 1.158.752.137 1.249.228 1.79.618.365.264.511.68.739 1.393.177.557.377 1.188.789 1.827 1.271 1.954 1.482 4.282 1.586 5.431.266 3.016.841 3.705 1.312 3.968.234.131.51.197.826.197.261 0 .549-.045.863-.134 1.309-.373 3.085-1.57 3.95-3.137.431-.783.58-1.502.724-2.198.175-.847.356-1.723 1.072-2.914.391-.651.819-1.347 1.278-1.952.542 1.746.936 3.556 1.121 5.43.252 2.557.153 5.106-.276 7.589l-3.751 2.118-6.671-4.128c-1.556-.964-3.514-1.003-5.107-.102-.504.284-.833.798-.878 1.374-.046.577.195 1.136.648 1.498l5.972 4.767-5.718 3.229-1.183-.897c-.553-.42-1.301-.469-1.904-.128l-1.204.68c-.485.272-.802.746-.87 1.298-.068.553.123 1.09.527 1.475l2.5 2.378.743 3.368c.121.544.482.986.991 1.212.51.226 1.079.2 1.561-.074l1.204-.68c.604-.341.947-1.007.874-1.699l-.159-1.475 5.719-3.23.999 7.577c.076.574.43 1.071.947 1.328.244.123.51.183.775.183.295 0 .59-.074.854-.225 1.595-.9 2.572-2.596 2.55-4.426l-.09-7.845 5.071-2.863c.729-.411 1.254-1.083 1.477-1.888.227-.81.123-1.654-.289-2.383zm-1.154 1.979c-.116.42-.389.769-.769.984l-5.458 3.081c-.238.134-.385.388-.381.662l.096 8.288c.015 1.283-.67 2.472-1.788 3.103-.096.052-.182.027-.223.006s-.115-.073-.129-.182l-1.144-8.678c-.033-.248-.186-.463-.409-.574-.105-.052-.22-.078-.334-.078-.127 0-.255.032-.369.096l-7.115 4.018c-.261.148-.409.436-.377.734l.211 1.964c.01.095-.037.187-.12.233l-1.204.68c-.092.052-.173.028-.214.011-.042-.018-.115-.065-.137-.167l-.793-3.591c-.032-.145-.107-.278-.216-.381l-2.665-2.535c-.077-.072-.078-.157-.073-.203.006-.044.028-.126.12-.177l1.204-.68c.083-.048.187-.04.261.017l1.573 1.195c.24.182.563.201.823.056l7.115-4.017c.217-.122.359-.344.378-.593.021-.249-.084-.491-.28-.646l-6.841-5.461c-.085-.069-.093-.158-.089-.205.005-.047.024-.134.121-.188 1.116-.632 2.487-.605 3.581.071l7.048 4.362c.234.146.526.151.763.016l5.456-3.082c.382-.215.823-.267 1.24-.151.42.117.769.391.984.77.217.38.271.82.154 1.242z"/></svg>